<svg width="38" height="45" viewBox="0 0 38 45" fill="none" xmlns="http://www.w3.org/2000/svg">
    <path d="M25.8005 34.5723L25.5435 35.3432L25.1464 36.5345L24.1653 39.3844H11.0137L11.9715 36.5345H6.76227L5.59429 39.9918C5.43054 40.4721 5.38252 40.9844 5.45413 41.4868C5.54434 41.9838 5.7438 42.4545 6.03813 42.865C6.34839 43.2761 6.74771 43.6115 7.20611 43.8461C7.6653 44.0687 8.16756 44.1883 8.67777 44.1965H24.6792C25.5151 44.1865 26.3287 43.9261 27.0152 43.449C27.6792 42.9804 28.1845 42.3202 28.4635 41.5569L30.7995 34.5489L25.8005 34.5723ZM14.2608 29.7836H9.09825L6.76227 36.5345H11.9014L14.2608 29.7836ZM33.9998 9.64746H25.2165L23.6047 14.4596H32.6449L27.4123 29.7836H32.458L37.5971 14.6931C37.7749 14.1187 37.8149 13.5106 37.714 12.9178C37.5983 12.3294 37.3595 11.7722 37.0132 11.2826C36.6594 10.7924 36.1953 10.3923 35.6583 10.1146C35.1441 9.84482 34.5792 9.68568 33.9998 9.64746ZM18.7692 9.64746C17.9326 9.65316 17.1177 9.91392 16.4332 10.395C15.7698 10.8542 15.2641 11.5067 14.9849 12.2637L9.70561 27.8214H14.8447L19.5167 14.4596H21.5256L23.1608 9.64746H18.7692Z" fill="#0E22E9"/>
    <path d="M28.2301 0H12.9995C12.1629 0.00569786 11.348 0.266493 10.6635 0.747529C9.9995 1.21621 9.49425 1.87629 9.21523 2.63966L0.104916 29.5034C-0.0349721 30.0869 -0.0349721 30.6952 0.104916 31.2787C0.199837 31.8733 0.440598 32.4351 0.805698 32.9139C1.15948 33.4041 1.6236 33.8042 2.16057 34.0819C2.69248 34.3672 3.28559 34.5195 3.88919 34.5257H23.5581V29.737L28.1133 16.3752L28.7673 14.413L30.4726 9.60086L31.1267 7.63865L31.991 5.04572C32.1423 4.46361 32.1423 3.85245 31.991 3.27035C31.8908 2.67018 31.6507 2.10204 31.2902 1.61183C30.9193 1.11959 30.4396 0.719836 29.8886 0.443841C29.3729 0.181478 28.8079 0.0302676 28.2301 0ZM25.2167 9.60086L23.6048 14.413L22.9274 16.3752L18.4423 29.7837H5.24406L13.7704 4.83549H26.9219L25.9408 7.68535L25.2167 9.60086Z" fill="#0E22E9"/>
</svg>
